<svg xmlns="http://www.w3.org/2000/svg" viewBox="0 0 59.26 59.26" fill= "#000000"><defs><style>.cls-1{fill:#9d874e;}</style></defs><title>Facebook</title><g id="Layer_2" data-name="Layer 2"><g id="Layer_1-2" data-name="Layer 1"><path class="cls-1" d="M29.63,43.44a1.16,1.16,0,0,0-1.16,1.16h0a1.16,1.16,0,0,0,2.32,0h0A1.16,1.16,0,0,0,29.63,43.44Z"/><path class="cls-1" d="M47.92,0H11.34A11.36,11.36,0,0,0,0,11.34V47.92A11.36,11.36,0,0,0,11.34,59.26H29.63a1.16,1.16,0,0,0,1.16-1.16v-9a1.16,1.16,0,1,0-2.32,0v7.81H11.34a9,9,0,0,1-9-9V11.34a9,9,0,0,1,9-9H47.92a9,9,0,0,1,9,9V47.92a9,9,0,0,1-9,9H40.51V36.52h6.71a1.16,1.16,0,0,0,1.15-1.05l.83-8.27a1.12,1.12,0,0,0-.29-.89,1.17,1.17,0,0,0-.86-.38H40.51V21.59c0-.79.25-1.08.92-1.08H48a1.16,1.16,0,0,0,1.16-1.16V11.29A1.16,1.16,0,0,0,48,10.13H39.37c-4.88,0-7.47,2.15-8.79,3.95a12.23,12.23,0,0,0-2.11,7V26H22.8a1.16,1.16,0,0,0-1.16,1.16v8.22a1.16,1.16,0,0,0,1.16,1.16h5.67v3.29a1.16,1.16,0,1,0,2.32,0V35.36a1.16,1.16,0,0,0-1.16-1.16H24V28.3h5.67a1.16,1.16,0,0,0,1.16-1.16v-6c0-2.61.83-8.67,8.58-8.67h7.47V18.2H41.43a3.11,3.11,0,0,0-3.24,3.39v5.5a1.16,1.16,0,0,0,1.16,1.16h7.42l-.6,6H39.35a1.16,1.16,0,0,0-1.16,1.16V58.1a1.16,1.16,0,0,0,1.16,1.16h8.57A11.36,11.36,0,0,0,59.26,47.92V11.34A11.36,11.36,0,0,0,47.92,0Z"/><path class="cls-1" d="M6.71,11.86A1.15,1.15,0,0,0,5.56,13v9.66a1.16,1.16,0,1,0,2.31,0V13A1.16,1.16,0,0,0,6.71,11.86Z"/><path class="cls-1" d="M6.71,26.55a1.15,1.15,0,0,0-1.15,1.16h0a1.16,1.16,0,1,0,2.31,0h0A1.16,1.16,0,0,0,6.71,26.55Z"/></g></g></svg>