<svg xmlns="http://www.w3.org/2000/svg" viewBox="0 0 59.26 59.26"><defs><style>.cls-1{fill:#9d874e;}</style></defs><title>Instagram</title><g id="Layer_2" data-name="Layer 2"><g id="Layer_1-2" data-name="Layer 1"><path class="cls-1" d="M41.9,0H17.36A17.38,17.38,0,0,0,0,17.36V41.9A17.38,17.38,0,0,0,17.36,59.26H41.9A17.38,17.38,0,0,0,59.26,41.9V17.36A17.38,17.38,0,0,0,41.9,0Zm15,41.9a15.06,15.06,0,0,1-15,15H17.36a15.06,15.06,0,0,1-15-15V17.36a15.07,15.07,0,0,1,15.05-15H41.9a15.06,15.06,0,0,1,15,15.05Z"/><path class="cls-1" d="M41.9,5.09H17.36A12.29,12.29,0,0,0,5.09,17.36V41.9A12.29,12.29,0,0,0,17.36,54.17h7.06a1.16,1.16,0,1,0,0-2.32H17.36a10,10,0,0,1-9.95-10V17.36a10,10,0,0,1,10-9.95H41.9a10,10,0,0,1,10,10V41.9a10,10,0,0,1-10,10h-7a1.16,1.16,0,0,0,0,2.32h7A12.29,12.29,0,0,0,54.17,41.9V17.36A12.29,12.29,0,0,0,41.9,5.09Z"/><path class="cls-1" d="M30.45,52.19a1.17,1.17,0,0,0-.82-.34,1.15,1.15,0,0,0-.82.34,1.19,1.19,0,0,0-.34.82,1.21,1.21,0,0,0,.34.82,1.19,1.19,0,0,0,.82.34A1.16,1.16,0,0,0,30.79,53,1.19,1.19,0,0,0,30.45,52.19Z"/><path class="cls-1" d="M20.35,18A1.17,1.17,0,0,0,18.71,18l-.05.05a1.16,1.16,0,1,0,1.59,1.68l.05,0A1.17,1.17,0,0,0,20.35,18Z"/><path class="cls-1" d="M29.63,13.66a16,16,0,0,0-7.32,1.77,1.15,1.15,0,1,0,1.06,2.05,13.67,13.67,0,1,1-5.63,5.42,1.16,1.16,0,0,0-2-1.15,16,16,0,1,0,13.9-8.09Z"/><path class="cls-1" d="M29.63,19.21A10.42,10.42,0,1,0,40.05,29.63,10.44,10.44,0,0,0,29.63,19.21Zm0,18.52a8.1,8.1,0,1,1,8.1-8.1A8.1,8.1,0,0,1,29.63,37.73Z"/><path class="cls-1" d="M44.82,10a4.4,4.4,0,1,0,4.4,4.4A4.4,4.4,0,0,0,44.82,10Zm0,6.48a2.08,2.08,0,1,1,2.08-2.08A2.08,2.08,0,0,1,44.82,16.52Z"/></g></g></svg>